<svg width="96" height="96" viewBox="0 0 96 96" fill="none" xmlns="http://www.w3.org/2000/svg">
<ellipse cx="48.2034" cy="48.2041" rx="8.17019" ry="8.17019" fill="#D9D9D9"/>
<ellipse cx="48.2032" cy="31.8636" rx="5.31062" ry="5.31062" fill="#D9D9D9"/>
<ellipse cx="35.9493" cy="35.9488" rx="5.31062" ry="5.31062" fill="#D9D9D9"/>
<ellipse cx="60.4591" cy="35.9488" rx="5.31062" ry="5.31062" fill="#D9D9D9"/>
<ellipse cx="48.2032" cy="64.5445" rx="5.31062" ry="5.31062" fill="#D9D9D9"/>
<ellipse cx="35.9493" cy="60.4595" rx="5.31062" ry="5.31062" fill="#D9D9D9"/>
<ellipse cx="64.545" cy="48.2042" rx="5.31062" ry="5.31062" fill="#D9D9D9"/>
<ellipse cx="60.4591" cy="60.4595" rx="5.31062" ry="5.31062" fill="#D9D9D9"/>
<ellipse cx="31.8634" cy="48.2042" rx="5.31062" ry="5.31062" fill="#D9D9D9"/>
<circle cx="47.9999" cy="11.6425" r="11.6425" fill="#D9D9D9"/>
<circle cx="21.037" cy="21.0383" r="11.6425" fill="#D9D9D9"/>
<circle cx="74.9609" cy="21.0383" r="11.6425" fill="#D9D9D9"/>
<circle cx="47.9999" cy="84.3571" r="11.6425" fill="#D9D9D9"/>
<circle cx="21.037" cy="74.9614" r="11.6425" fill="#D9D9D9"/>
<circle cx="84.3574" cy="47.9999" r="11.6425" fill="#D9D9D9"/>
<circle cx="74.9609" cy="74.9614" r="11.6425" fill="#D9D9D9"/>
<circle cx="11.6425" cy="47.9999" r="11.6425" fill="#D9D9D9"/>
</svg>